<svg width="78" height="41" viewBox="0 0 78 41" fill="none" xmlns="http://www.w3.org/2000/svg">
<g filter="url(#filter0_dd_184_2118)">
<rect x="2" y="1.23145" width="76" height="36" rx="18" fill="url(#paint0_linear_184_2118)"/>
<rect x="2.5" y="1.73145" width="75" height="35" rx="17.5" stroke="url(#paint1_linear_184_2118)"/>
<path d="M19.9787 24.2314H18.348L22.0121 14.0496H23.7869L27.451 24.2314H25.8203L22.9418 15.8991H22.8622L19.9787 24.2314ZM20.2521 20.2442H25.5419V21.5368H20.2521V20.2442ZM31.8956 24.3856C31.1565 24.3856 30.5201 24.2182 29.9865 23.8834C29.4562 23.5454 29.0485 23.0797 28.7635 22.4864C28.4785 21.8931 28.3359 21.2137 28.3359 20.4481C28.3359 19.6725 28.4818 18.9881 28.7734 18.3948C29.0651 17.7982 29.4761 17.3325 30.0064 16.9978C30.5367 16.663 31.1615 16.4956 31.8807 16.4956C32.4607 16.4956 32.9777 16.6034 33.4318 16.8188C33.8859 17.0309 34.2521 17.3292 34.5305 17.7137C34.8123 18.0982 34.9796 18.5473 35.0327 19.061H33.5859C33.5064 18.703 33.3241 18.3948 33.0391 18.1363C32.7573 17.8778 32.3795 17.7485 31.9055 17.7485C31.4912 17.7485 31.1283 17.8579 30.8168 18.0766C30.5085 18.2921 30.2682 18.6003 30.0959 19.0013C29.9235 19.3991 29.8374 19.8697 29.8374 20.4133C29.8374 20.9701 29.9219 21.4507 30.0909 21.855C30.2599 22.2594 30.4986 22.5726 30.8068 22.7947C31.1184 23.0167 31.4846 23.1278 31.9055 23.1278C32.1873 23.1278 32.4425 23.0764 32.6712 22.9736C32.9032 22.8676 33.0971 22.7168 33.2528 22.5212C33.4119 22.3257 33.523 22.0903 33.5859 21.8153H35.0327C34.9796 22.3091 34.8189 22.7499 34.5504 23.1377C34.282 23.5255 33.9223 23.8304 33.4716 24.0525C33.0241 24.2745 32.4988 24.3856 31.8956 24.3856ZM40.187 16.5951V17.7883H36.0158V16.5951H40.187ZM37.1344 14.7655H38.6209V21.9893C38.6209 22.2776 38.664 22.4947 38.7502 22.6405C38.8364 22.7831 38.9474 22.8808 39.0833 22.9339C39.2225 22.9836 39.3733 23.0084 39.5357 23.0084C39.655 23.0084 39.7594 23.0001 39.8489 22.9836C39.9384 22.967 40.008 22.9537 40.0577 22.9438L40.3262 24.1718C40.24 24.2049 40.1174 24.2381 39.9583 24.2712C39.7992 24.3077 39.6003 24.3276 39.3617 24.3309C38.9706 24.3375 38.606 24.2679 38.2679 24.1221C37.9299 23.9762 37.6564 23.7509 37.4476 23.4459C37.2388 23.141 37.1344 22.7582 37.1344 22.2975V14.7655ZM41.8313 24.2314V16.5951H43.3178V24.2314H41.8313ZM42.582 15.4168C42.3235 15.4168 42.1014 15.3306 41.9158 15.1583C41.7335 14.9826 41.6424 14.7738 41.6424 14.5319C41.6424 14.2866 41.7335 14.0778 41.9158 13.9055C42.1014 13.7298 42.3235 13.642 42.582 13.642C42.8406 13.642 43.061 13.7298 43.2433 13.9055C43.4289 14.0778 43.5217 14.2866 43.5217 14.5319C43.5217 14.7738 43.4289 14.9826 43.2433 15.1583C43.061 15.3306 42.8406 15.4168 42.582 15.4168ZM48.5343 24.3856C47.8184 24.3856 47.1936 24.2215 46.66 23.8934C46.1264 23.5653 45.7121 23.1062 45.4171 22.5162C45.1221 21.9263 44.9746 21.2369 44.9746 20.4481C44.9746 19.6559 45.1221 18.9632 45.4171 18.3699C45.7121 17.7767 46.1264 17.316 46.66 16.9878C47.1936 16.6597 47.8184 16.4956 48.5343 16.4956C49.2502 16.4956 49.8749 16.6597 50.4086 16.9878C50.9422 17.316 51.3565 17.7767 51.6515 18.3699C51.9464 18.9632 52.0939 19.6559 52.0939 20.4481C52.0939 21.2369 51.9464 21.9263 51.6515 22.5162C51.3565 23.1062 50.9422 23.5653 50.4086 23.8934C49.8749 24.2215 49.2502 24.3856 48.5343 24.3856ZM48.5392 23.1377C49.0033 23.1377 49.3877 23.0151 49.6926 22.7698C49.9976 22.5245 50.223 22.1981 50.3688 21.7904C50.5179 21.3827 50.5925 20.9336 50.5925 20.4431C50.5925 19.9559 50.5179 19.5084 50.3688 19.1008C50.223 18.6898 49.9976 18.36 49.6926 18.1114C49.3877 17.8628 49.0033 17.7385 48.5392 17.7385C48.0719 17.7385 47.6841 17.8628 47.3759 18.1114C47.071 18.36 46.8439 18.6898 46.6948 19.1008C46.5489 19.5084 46.476 19.9559 46.476 20.4431C46.476 20.9336 46.5489 21.3827 46.6948 21.7904C46.8439 22.1981 47.071 22.5245 47.3759 22.7698C47.6841 23.0151 48.0719 23.1377 48.5392 23.1377ZM55.2397 19.6974V24.2314H53.7532V16.5951H55.18V17.838H55.2745C55.4502 17.4336 55.7253 17.1088 56.0998 16.8635C56.4776 16.6183 56.9532 16.4956 57.5266 16.4956C58.047 16.4956 58.5027 16.605 58.8938 16.8238C59.2849 17.0392 59.5882 17.3607 59.8036 17.7883C60.0191 18.2158 60.1268 18.7445 60.1268 19.3742V24.2314H58.6403V19.5532C58.6403 18.9997 58.4961 18.5671 58.2077 18.2556C57.9194 17.9407 57.5233 17.7833 57.0195 17.7833C56.6748 17.7833 56.3683 17.8579 56.0998 18.007C55.8346 18.1562 55.6242 18.3749 55.4684 18.6633C55.3159 18.9483 55.2397 19.293 55.2397 19.6974Z" fill="white"/>
</g>
<defs>
<filter id="filter0_dd_184_2118" x="0" y="0.231445" width="80" height="40" filterUnits="userSpaceOnUse" color-interpolation-filters="sRGB">
<feFlood flood-opacity="0" result="BackgroundImageFix"/>
<feColorMatrix in="SourceAlpha" type="matrix" values="0 0 0 0 0 0 0 0 0 0 0 0 0 0 0 0 0 0 127 0" result="hardAlpha"/>
<feOffset dy="1"/>
<feGaussianBlur stdDeviation="1"/>
<feColorMatrix type="matrix" values="0 0 0 0 0.0627451 0 0 0 0 0.0941176 0 0 0 0 0.156863 0 0 0 0.04 0"/>
<feBlend mode="normal" in2="BackgroundImageFix" result="effect1_dropShadow_184_2118"/>
<feColorMatrix in="SourceAlpha" type="matrix" values="0 0 0 0 0 0 0 0 0 0 0 0 0 0 0 0 0 0 127 0" result="hardAlpha"/>
<feOffset dy="1"/>
<feGaussianBlur stdDeviation="1"/>
<feColorMatrix type="matrix" values="0 0 0 0 0.0627451 0 0 0 0 0.0941176 0 0 0 0 0.156863 0 0 0 0.04 0"/>
<feBlend mode="normal" in2="effect1_dropShadow_184_2118" result="effect2_dropShadow_184_2118"/>
<feBlend mode="normal" in="SourceGraphic" in2="effect2_dropShadow_184_2118" result="shape"/>
</filter>
<linearGradient id="paint0_linear_184_2118" x1="40" y1="1.23145" x2="40" y2="37.2314" gradientUnits="userSpaceOnUse">
<stop stop-color="#00A3F9"/>
<stop offset="1" stop-color="#00F1EF"/>
</linearGradient>
<linearGradient id="paint1_linear_184_2118" x1="40" y1="1.23145" x2="40" y2="37.2314" gradientUnits="userSpaceOnUse">
<stop stop-color="#00A3F9"/>
<stop offset="1" stop-color="#00F1EF"/>
</linearGradient>
</defs>
</svg>
