<svg width="90" height="89" viewBox="0 0 90 89" fill="none" xmlns="http://www.w3.org/2000/svg">
<path d="M44.5 85C66.8675 85 85 66.8675 85 44.5C85 22.1325 66.8675 4 44.5 4C22.1325 4 4 22.1325 4 44.5C4 66.8675 22.1325 85 44.5 85Z" fill="#121639" stroke="url(#paint0_linear_184_2214)" stroke-width="6"/>
<mask id="mask0_184_2214" style="mask-type:alpha" maskUnits="userSpaceOnUse" x="2" y="1" width="86" height="86">
<path d="M44.75 1.5L49.2186 1.73419L53.6382 2.43419L57.9606 3.59233L62.138 5.19594L66.125 7.22742L69.8779 9.66452L73.3554 12.4806L76.5194 15.6447L79.3356 19.1222L81.7726 22.875L83.8041 26.862L85.4077 31.0394L86.5657 35.3618L87.2658 39.7814L87.5 44.25L87.2658 48.7186L86.5657 53.1382L85.4077 57.4606L83.8041 61.638L81.7726 65.625L79.3356 69.3779L76.5194 72.8554L73.3554 76.0194L69.8779 78.8356L66.125 81.2726L62.138 83.3041L57.9606 84.9077L53.6382 86.0657L49.2186 86.7658L44.75 87L40.2814 86.7658L35.8618 86.0657L31.5394 84.9077L27.362 83.3041L23.375 81.2726L19.6222 78.8356L16.1447 76.0194L12.9806 72.8554L10.1645 69.3779L7.72742 65.625L5.69594 61.638L4.09233 57.4606L2.93419 53.1382L2.23419 48.7186L2 44.25L2.23419 39.7814L2.93419 35.3618L4.09233 31.0394L5.69594 26.862L7.72742 22.875L10.1645 19.1222L12.9806 15.6447L16.1447 12.4806L19.6222 9.66452L23.375 7.22742L27.362 5.19594L31.5394 3.59233L35.8618 2.43419L40.2814 1.73419L44.75 1.5Z" fill="white"/>
</mask>
<g mask="url(#mask0_184_2214)">
<path d="M-17.2322 35.8567L10.5098 45.3346M-17.2322 35.8567C-17.2322 35.8567 -28.8515 48.771 -29.4912 50.6719C-30.1308 52.5728 -25.1215 69.1028 -24.0622 70.9329C-23.0029 72.7631 -8.68336 84.8767 -7.37075 85.4857M-17.2322 35.8567C-17.2322 35.8567 -18.4332 31.3741 -18.7695 30.1191C-19.1059 28.8637 -12.8533 20.8467 -12.8533 20.8467M10.5098 45.3346C10.5098 45.3346 12.6851 59.5491 13.0523 61.949M10.5098 45.3346C11.2383 44.0631 18.5484 37.0951 22.1124 33.77M-7.37075 85.4857C0.604964 76.2942 10.9732 63.467 13.0523 61.949M-7.37075 85.4857C-6.97673 86.9561 -6.69812 87.9961 -6.36182 89.2512C-6.02552 90.5063 10.4916 97.9953 10.4916 97.9953M-12.8533 20.8467L-15.642 5.45124C-15.642 5.45124 -12.2137 -5.26828 -3.9514 -8.6352M-12.8533 20.8467L9.4656 7.94808M13.0523 61.949C15.3622 63.4439 43.9127 73.0895 43.9127 73.0895M22.1124 33.77L23.7031 20.468M22.1124 33.77C22.1124 33.77 37.2147 42.4069 54.6462 48.3056M43.9127 73.0895C43.9127 73.0895 49.3872 64.3201 54.6462 48.3056M43.9127 73.0895L10.4916 97.9953M43.9127 73.0895L50.7425 84.3274M10.4916 97.9953L12.6796 102.982C16.3759 105.201 22.2029 108.708 26.8054 111.496C30.4702 113.716 33.3583 115.481 33.7764 115.778M-3.9514 -8.6352L9.4656 7.94808M-3.9514 -8.6352L6.73836 -23.6065M9.4656 7.94808L21.5892 12.5787M21.5892 12.5787C21.7934 14.7661 22.5021 19.4062 23.7031 20.468M21.5892 12.5787C22.8221 11.4797 26.9651 5.56519 28.8825 2.74532M6.73836 -23.6065C16.7067 -19.1671 19.6506 -17.4576 30.083 -9.87552M6.73836 -23.6065C7.45092 -23.7974 21.8158 -33.6037 25.0222 -34.463C28.2286 -35.3226 41.1211 -27.8228 41.1211 -27.8228M23.7031 20.468L48.8166 20.8493M54.6462 48.3056C56.7663 46.969 60.7708 45.5115 60.7708 45.5115M48.8166 20.8493L63.6627 29.9392M48.8166 20.8493L44.6849 5.42941M63.6627 29.9392L62.5101 42.7395M63.6627 29.9392L74.6067 16.6294M44.6849 5.42941L28.8825 2.74532M44.6849 5.42941L63.2091 -4.53067M62.5101 42.7395L60.7708 45.5115M62.5101 42.7395C62.5101 42.7395 76.9015 46.5703 91.4287 48.0585M74.6067 16.6294L70.2266 -2.5675M74.6067 16.6294C74.6067 16.6294 87.767 18.8422 96.1995 20.2601M60.7708 45.5115C60.7708 45.5115 66.5178 49.1603 82.9551 69.1622M91.4287 48.0585C94.4201 47.257 99.0887 46.0062 99.0887 46.0062M91.4287 48.0585C88.1195 56.3001 87.4403 55.2768 82.9551 69.1622M82.9551 69.1622C83.8743 72.5932 85.309 77.948 85.309 77.948M50.7425 84.3274C50.7425 84.3274 64.2534 89.163 73.2142 91.9506M50.7425 84.3274C45.48 95.0902 34.7196 116.448 33.7764 115.778M33.7764 115.778C33.7764 115.778 34.2569 117.571 34.9775 120.261C35.698 122.95 55.8015 128.133 58.4701 127.418C61.1383 126.703 76.4632 110.49 76.8397 109.044C77.2158 107.598 77.4879 102.912 77.4879 102.912M28.8825 2.74532L30.083 -9.87552M30.083 -9.87552L41.2953 -20.759M41.2953 -20.759L41.1211 -27.8228M41.2953 -20.759L63.2091 -4.53067M41.1211 -27.8228L47.1755 -34.4415M47.1755 -34.4415C47.1755 -34.4415 64.5094 -23.9044 79.5732 -17.5633M47.1755 -34.4415L57.109 -39.4094L71.3822 -39.5825L83.624 -30.9478L87.8554 -22.2808M63.2091 -4.53067L70.0825 -3.1054C70.0825 -3.1054 75.8669 -11.9172 79.5732 -17.5633M79.5732 -17.5633C82.6951 -19.8258 87.5672 -23.3566 87.5672 -23.3566L100.672 -16.4905M100.672 -16.4905C100.672 -16.4905 101.403 4.06831 96.1995 20.2601M100.672 -16.4905C106.007 -12.5393 113.361 -3.8119 116.371 0.0578806L114.013 15.487M96.1995 20.2601C98.2875 21.652 101.546 23.8241 101.546 23.8241M101.546 23.8241L114.013 15.487M101.546 23.8241L105.149 37.2718M114.013 15.487L127.352 25.3651L132.625 49.3192M132.625 49.3192L105.149 37.2718M132.625 49.3192L134.883 57.7463L127.946 67.4844L115.382 75.4628M105.149 37.2718L99.0887 46.0062M99.0887 46.0062C99.0887 46.0062 103.175 59.1321 103.835 72.9839M103.835 72.9839C101.417 74.5325 100.061 75.4007 97.6428 76.9494M103.835 72.9839C108.345 73.9521 115.382 75.4628 115.382 75.4628M85.309 77.948C85.309 77.948 92.826 77.3393 97.6428 76.9494M85.309 77.948C85.309 77.948 77.6277 86.3479 73.2142 91.9506M97.6428 76.9494C101.392 88.8202 100.933 90.4084 102.936 99.5528M115.382 75.4628C115.382 75.4628 107.861 89.8279 102.936 99.5528M102.936 99.5528C100.942 100.664 77.4879 102.912 77.4879 102.912M73.2142 91.9506C75.028 95.8847 77.4879 102.912 77.4879 102.912" stroke="url(#paint1_linear_184_2214)" stroke-width="4"/>
</g>
<defs>
<linearGradient id="paint0_linear_184_2214" x1="21.2226" y1="1.71263" x2="67.1047" y2="84.7309" gradientUnits="userSpaceOnUse">
<stop stop-color="#00A3F9"/>
<stop offset="1" stop-color="#00F1EF"/>
</linearGradient>
<linearGradient id="paint1_linear_184_2214" x1="15.8467" y1="9.9693" x2="73.8361" y2="78.6871" gradientUnits="userSpaceOnUse">
<stop stop-color="#00A3F9"/>
<stop offset="1" stop-color="#00F1EF"/>
</linearGradient>
</defs>
</svg>
