<svg width="24" height="25" viewBox="0 0 24 25" fill="none" xmlns="http://www.w3.org/2000/svg">
<path d="M9.88806 11.0181C9.20406 11.0181 8.66406 11.6181 8.66406 12.3501C8.66406 13.0821 9.21606 13.6821 9.88806 13.6821C10.5721 13.6821 11.1121 13.0821 11.1121 12.3501C11.1241 11.6181 10.5721 11.0181 9.88806 11.0181ZM14.2681 11.0181C13.5841 11.0181 13.0441 11.6181 13.0441 12.3501C13.0441 13.0821 13.5961 13.6821 14.2681 13.6821C14.9521 13.6821 15.4921 13.0821 15.4921 12.3501C15.4921 11.6181 14.9521 11.0181 14.2681 11.0181Z" fill="white"/>
<path d="M20.1005 0.950195H4.02055C2.66455 0.950195 1.56055 2.0542 1.56055 3.42219V19.6462C1.56055 21.0142 2.66455 22.1182 4.02055 22.1182H17.6285L16.9925 19.8982L18.5285 21.3262L19.9805 22.6702L22.5605 24.9502V3.42219C22.5605 2.0542 21.4565 0.950195 20.1005 0.950195ZM15.4685 16.6222C15.4685 16.6222 15.0365 16.1062 14.6765 15.6502C16.2485 15.2062 16.8485 14.2222 16.8485 14.2222C16.3565 14.5462 15.8885 14.7742 15.4685 14.9302C14.8685 15.1822 14.2925 15.3502 13.7285 15.4462C12.5765 15.6622 11.5205 15.6022 10.6205 15.4342C9.93655 15.3022 9.34855 15.1102 8.85655 14.9182C8.58055 14.8102 8.28055 14.6782 7.98055 14.5102C7.94455 14.4862 7.90855 14.4742 7.87255 14.4502C7.84855 14.4382 7.83655 14.4262 7.82455 14.4142C7.60855 14.2942 7.48855 14.2102 7.48855 14.2102C7.48855 14.2102 8.06455 15.1702 9.58855 15.6262C9.22855 16.0822 8.78455 16.6222 8.78455 16.6222C6.13255 16.5382 5.12455 14.7982 5.12455 14.7982C5.12455 10.9342 6.85255 7.8022 6.85255 7.8022C8.58055 6.5062 10.2245 6.54219 10.2245 6.54219L10.3445 6.6862C8.18455 7.3102 7.18855 8.2582 7.18855 8.2582C7.18855 8.2582 7.45255 8.1142 7.89655 7.9102C9.18055 7.3462 10.2005 7.19019 10.6205 7.15419C10.6925 7.14219 10.7525 7.1302 10.8245 7.1302C11.5565 7.03419 12.3845 7.0102 13.2485 7.1062C14.3885 7.2382 15.6125 7.5742 16.8605 8.2582C16.8605 8.2582 15.9125 7.35819 13.8725 6.73419L14.0405 6.54219C14.0405 6.54219 15.6845 6.5062 17.4125 7.8022C17.4125 7.8022 19.1405 10.9342 19.1405 14.7982C19.1405 14.7982 18.1205 16.5382 15.4685 16.6222Z" fill="white"/>
</svg>
