<svg width="800" height="578" viewBox="0 0 800 578" fill="none" xmlns="http://www.w3.org/2000/svg">
<path d="M360.067 481.333C363.144 481.338 366.19 481.948 369.032 483.13C371.873 484.312 374.454 486.041 376.627 488.22C378.8 490.399 380.522 492.985 381.696 495.83C382.869 498.675 383.471 501.723 383.467 504.8C383.462 507.877 382.852 510.924 381.67 513.765C380.488 516.606 378.759 519.187 376.58 521.36C374.4 523.533 371.815 525.255 368.97 526.429C366.125 527.603 363.077 528.204 360 528.2C353.785 528.191 347.828 525.714 343.44 521.313C339.051 516.912 336.591 510.948 336.6 504.733C336.609 498.518 339.086 492.562 343.487 488.173C347.888 483.785 353.852 481.325 360.067 481.333ZM727.533 336.433C724.456 336.431 721.409 335.823 718.567 334.643C715.725 333.464 713.143 331.736 710.968 329.558C708.794 327.381 707.069 324.796 705.894 321.952C704.718 319.108 704.114 316.061 704.117 312.983C704.119 309.906 704.727 306.859 705.907 304.017C707.086 301.175 708.814 298.593 710.992 296.418C713.169 294.244 715.754 292.52 718.598 291.344C721.442 290.168 724.489 289.565 727.566 289.567C733.781 289.571 739.74 292.044 744.131 296.442C748.523 300.84 750.988 306.802 750.983 313.017C750.979 319.232 748.506 325.19 744.108 329.582C739.71 333.973 733.748 336.438 727.533 336.433ZM727.533 240.567C708.319 240.584 689.897 248.225 676.311 261.811C662.725 275.397 655.084 293.819 655.067 313.033C655.067 320.8 656.367 328.533 658.9 336.067L419.533 463.5C412.896 453.863 404.015 445.984 393.655 440.543C383.296 435.102 371.768 432.262 360.067 432.267C332.433 432.267 307.267 448.1 295.067 472.8L80.0332 359.4C57.2999 347.467 40.2999 310.067 42.0999 276C43.0332 258.233 49.1665 244.433 58.5332 239.1C64.4665 235.767 71.5999 236.033 79.1999 240L80.5999 240.767C137.6 270.767 324.067 369 331.933 372.633C344.033 378.267 350.767 380.533 371.433 370.733L756.9 170.267C762.567 168.133 769.167 162.7 769.167 154.467C769.167 143.067 757.366 138.567 757.333 138.567C735.4 128.067 701.7 112.3 668.833 96.9C598.567 64 518.933 26.7334 483.967 8.40004C453.767 -7.39996 429.467 5.93337 425.133 8.60004L416.733 12.7667C259.333 90.6 48.6665 194.933 36.6665 202.233C15.2332 215.3 1.93321 241.333 0.199876 273.633C-2.46679 324.867 23.6332 378.3 60.9999 397.867L288.4 515.133C290.905 532.359 299.524 548.109 312.682 559.504C325.84 570.9 342.66 577.181 360.067 577.2C379.078 577.168 397.317 569.677 410.862 556.337C424.407 542.997 432.177 524.875 432.5 505.867L682.967 370.1C695.633 380.033 711.4 385.467 727.533 385.467C746.747 385.449 765.169 377.809 778.755 364.222C792.342 350.636 799.982 332.214 800 313C799.982 293.786 792.342 275.364 778.755 261.778C765.169 248.192 746.747 240.551 727.533 240.533" fill="white"/>
</svg>
