<svg width="24" height="25" viewBox="0 0 24 25" fill="none" xmlns="http://www.w3.org/2000/svg">
<g clip-path="url(#clip0_184_644)">
<path fill-rule="evenodd" clip-rule="evenodd" d="M12 0.950195C5.3724 0.950195 0 6.331 0 12.9706C0 18.2806 3.438 22.7866 8.2068 24.3754C8.8068 24.4858 9.0252 24.115 9.0252 23.7958C9.0252 23.5114 9.0156 22.7542 9.0096 21.7522C5.6712 22.4782 4.9668 20.1406 4.9668 20.1406C4.422 18.751 3.6348 18.3814 3.6348 18.3814C2.5452 17.6374 3.7176 17.6518 3.7176 17.6518C4.9212 17.7358 5.5548 18.8902 5.5548 18.8902C6.6252 20.7262 8.364 20.1958 9.0468 19.8886C9.1572 19.1122 9.4668 18.583 9.81 18.283C7.146 17.9794 4.344 16.9474 4.344 12.3418C4.344 11.0302 4.812 9.95619 5.5788 9.11619C5.4552 8.8126 5.0436 7.5898 5.6964 5.9362C5.6964 5.9362 6.7044 5.6122 8.9964 7.1674C9.97532 6.90041 10.9853 6.76443 12 6.76299C13.02 6.76779 14.046 6.901 15.0048 7.1674C17.2956 5.6122 18.3012 5.93499 18.3012 5.93499C18.9564 7.58979 18.5436 8.8126 18.4212 9.11619C19.1892 9.95619 19.6548 11.0302 19.6548 12.3418C19.6548 16.9594 16.848 17.9758 14.1756 18.2734C14.6064 18.6442 14.9892 19.3774 14.9892 20.4994C14.9892 22.105 14.9748 23.4022 14.9748 23.7958C14.9748 24.1174 15.1908 24.4918 15.8004 24.3742C18.19 23.5727 20.2672 22.0406 21.7386 19.9943C23.2099 17.9479 24.001 15.491 24 12.9706C24 6.331 18.6264 0.950195 12 0.950195Z" fill="white"/>
</g>
<defs>
<clipPath id="clip0_184_644">
<rect width="24" height="24" fill="white" transform="translate(0 0.950195)"/>
</clipPath>
</defs>
</svg>
