<svg width="575" height="600" viewBox="0 0 575 600" fill="none" xmlns="http://www.w3.org/2000/svg">
<path d="M287.098 0L566.597 150V450L287.098 600L7.59717 450V150L287.098 0Z" stroke="url(#paint0_linear_546_1383)" stroke-width="15"/>
<mask id="mask0_546_1383" style="mask-type:alpha" maskUnits="userSpaceOnUse" x="7" y="0" width="560" height="600">
<path d="M286.685 0L566.371 150V450L286.685 600L7 450V150L286.685 0Z" fill="white"/>
</mask>
<g mask="url(#mask0_546_1383)">
<path d="M-2.34062 205.5L104.234 271.5M-2.34062 205.5C-2.34062 205.5 -66.1089 243.749 -70.968 250.5C-75.8271 257.251 -73.3739 327 -70.968 335.251C-68.5621 343.5 -21.734 405.749 -16.8735 409.5M-2.34062 205.5C-2.34062 205.5 -2.34062 186.751 -2.34062 181.5C-2.34062 176.251 33.1843 151.5 33.1843 151.5M104.234 271.5C104.234 271.5 97.3256 329.251 96.1601 339M104.234 271.5C108.755 267.3 147.563 247.751 166.402 238.5M-16.8735 409.5C27.2688 381.968 85.6476 342.749 96.1601 339M-16.8735 409.5C-16.8735 415.651 -16.8735 420 -16.8735 425.251C-16.8735 430.5 44.4877 477 44.4877 477M33.1843 151.5L38.836 88.5C38.836 88.5 65.4796 50.25 104.234 45.75M33.1843 151.5L142.18 124.5M96.1601 339C104.234 347.251 214.038 414.749 214.038 414.749M166.402 238.5L188.202 188.251M166.402 238.5C166.402 238.5 220.48 288 287.509 329.251M214.038 414.749C214.038 414.749 247.124 386.251 287.509 329.251M214.038 414.749L44.4877 477M214.038 414.749L230.185 465.749M44.4877 477L48.0898 498.749C61.2055 511.276 81.8741 531.055 98.1767 546.749C111.158 559.247 121.372 569.155 122.803 570.749M104.234 45.75L142.18 124.5M104.234 45.75L166.402 -1.5M142.18 124.5L188.202 155.251M188.202 155.251C186.587 164 184.326 182.851 188.202 188.251M188.202 155.251C194.661 152.251 218.882 133.5 230.185 124.5M166.402 -1.5C203.525 26.25 214.038 36 249.563 76.5M166.402 -1.5C169.631 -1.5 241.489 -24.7487 256.022 -24.75C270.554 -24.7513 316.575 18 316.575 18M188.202 188.251L293.968 216M287.509 329.251C297.988 326.251 316.575 324.749 316.575 324.749M293.968 216L346.448 267M293.968 216V151.5M346.448 267L327.071 315.751M346.448 267L407.809 226.5M293.968 151.5L230.185 124.5M293.968 151.5L383.588 132M327.071 315.751L316.575 324.749M327.071 315.751C327.071 315.751 383.588 345.749 443.334 366.749M407.809 226.5L411.039 147M407.809 226.5C407.809 226.5 460.954 248.899 495.007 263.251M316.575 324.749C316.575 324.749 336.743 345 383.588 440.251M443.334 366.749C456.892 366.749 478.051 366.749 478.051 366.749M443.334 366.749C420.001 395.453 418.289 390.749 383.588 440.251M383.588 440.251C383.588 454.601 383.588 477 383.588 477M230.185 465.749C230.185 465.749 281.841 498.749 316.575 519M230.185 465.749C195.737 502.251 126.032 574.351 122.803 570.749M122.803 570.749C122.803 570.749 122.803 578.251 122.803 589.5C122.803 600.749 201.944 642 214.038 642C226.132 642 309.309 594.749 312.538 589.5C315.768 584.251 322.227 566.251 322.227 566.251M230.185 124.5L249.563 76.5M249.563 76.5L309.309 45.75M309.309 45.75L316.575 18M309.309 45.75L383.588 132M316.575 18L349.678 -1.5M349.678 -1.5C349.678 -1.5 411.039 57.75 467.556 98.25M349.678 -1.5L397.313 -10.5L457.867 3.75L499.851 50.25L507.925 88.5M383.588 132L411.039 144.751C411.039 144.751 445.484 116.409 467.556 98.25M467.556 98.25C483.32 92.6851 507.925 84 507.925 84L555.559 124.5M555.559 124.5C555.559 124.5 535.358 205.5 495.007 263.251M555.559 124.5C573.645 145.5 594.852 187.251 603.196 205.5L575.745 263.251M495.007 263.251C502.258 270.865 513.576 282.751 513.576 282.751M513.576 282.751L575.745 263.251M513.576 282.751V339M575.745 263.251L620.958 315.751L616.114 414.749M616.114 414.749L513.576 339M616.114 414.749V450L575.745 480.749L513.576 498.749M513.576 339L478.051 366.749M478.051 366.749C478.051 366.749 480.456 422.251 467.556 477M467.556 477C455.575 480.515 448.856 482.485 436.875 486M467.556 477C485.528 485.493 513.576 498.749 513.576 498.749M383.588 477C383.588 477 416.065 482.485 436.875 486M383.588 477C383.588 477 341.587 501.749 316.575 519M436.875 486C439.281 536.251 435.537 541.967 433.646 579.749M513.576 498.749C513.576 498.749 465.492 546.945 433.646 579.749M433.646 579.749C423.957 582 322.227 566.251 322.227 566.251M316.575 519C319.788 536.251 322.227 566.251 322.227 566.251" stroke="url(#paint1_linear_546_1383)" stroke-width="9"/>
</g>
<defs>
<linearGradient id="paint0_linear_546_1383" x1="70.5313" y1="-3.33326e-06" x2="404.917" y2="640.383" gradientUnits="userSpaceOnUse">
<stop stop-color="#8C79FF"/>
<stop offset="1" stop-color="#4FCABB"/>
</linearGradient>
<linearGradient id="paint1_linear_546_1383" x1="68.6926" y1="-1.49999" x2="402.826" y2="643.477" gradientUnits="userSpaceOnUse">
<stop stop-color="#8C79FF"/>
<stop offset="1" stop-color="#4FCABB"/>
</linearGradient>
</defs>
</svg>
