<svg width="800" height="800" viewBox="0 0 800 800" fill="none" xmlns="http://www.w3.org/2000/svg">
<path d="M483.333 250H536.667C564.67 250 578.67 250 589.367 255.45C598.773 260.243 606.423 267.892 611.217 277.3C616.667 287.996 616.667 301.997 616.667 330V583.333C616.667 620.153 586.82 650 550 650M550 650C513.18 650 483.333 620.153 483.333 583.333V256.667C483.333 219.33 483.333 200.661 476.067 186.401C469.677 173.856 459.477 163.658 446.933 157.266C432.673 150 414.003 150 376.667 150H256.667C219.33 150 200.661 150 186.401 157.266C173.856 163.658 163.658 173.856 157.266 186.401C150 200.661 150 219.33 150 256.667V543.333C150 580.67 150 599.34 157.266 613.6C163.658 626.143 173.856 636.343 186.401 642.733C200.661 650 219.33 650 256.667 650H550Z" stroke="white" stroke-width="33.3333"/>
<path d="M366.667 216.667H266.667C251.135 216.667 243.37 216.667 237.244 219.204C229.076 222.587 222.587 229.076 219.204 237.244C216.667 243.37 216.667 251.135 216.667 266.667C216.667 282.198 216.667 289.963 219.204 296.089C222.587 304.257 229.076 310.746 237.244 314.129C243.37 316.666 251.135 316.667 266.667 316.667H366.667C382.197 316.667 389.963 316.666 396.09 314.129C404.257 310.746 410.747 304.257 414.13 296.089C416.667 289.963 416.667 282.198 416.667 266.667C416.667 251.135 416.667 243.37 414.13 237.244C410.747 229.076 404.257 222.587 396.09 219.204C389.963 216.667 382.197 216.667 366.667 216.667Z" stroke="white" stroke-width="33.3333"/>
<path d="M216.667 383.333H416.667" stroke="#B9B9B9" stroke-width="33.3333" stroke-linecap="round"/>
<path d="M216.667 450H416.667" stroke="#B9B9B9" stroke-width="33.3333" stroke-linecap="round"/>
<path d="M216.667 516.667H416.667" stroke="#B9B9B9" stroke-width="33.3333" stroke-linecap="round"/>
<path d="M216.667 583.333H350" stroke="#B9B9B9" stroke-width="33.3333" stroke-linecap="round"/>
</svg>
