<svg width="205" height="33" viewBox="0 0 205 33" fill="none" xmlns="http://www.w3.org/2000/svg">
<path d="M194.463 11.319V9.62793H204.885V11.319H194.463ZM194.463 17.9143V16.2021H204.885V17.9143H194.463ZM194.463 24.4673V22.7762H204.885V24.4673H194.463Z" fill="url(#paint0_linear_184_616)"/>
<path d="M184.417 24.4672L172.664 11.9532V9.52222L182.726 20.2184V9.64905H184.417V24.4672Z" fill="url(#paint1_linear_184_616)"/>
<path d="M156.135 9.52222L163.048 24.4672H161.166L156.135 13.5597L151.126 24.4672H149.265L156.135 9.52222Z" fill="url(#paint2_linear_184_616)"/>
<path d="M140.064 24.4672H137.739L131.101 17.5337H134.272C134.695 17.5337 135.096 17.4562 135.477 17.3012C135.857 17.1321 136.182 16.9137 136.449 16.6459C136.731 16.3641 136.95 16.0399 137.105 15.6735C137.274 15.2931 137.358 14.8914 137.358 14.4686C137.358 14.0318 137.274 13.6301 137.105 13.2637C136.95 12.8832 136.731 12.5521 136.449 12.2702C136.182 11.9884 135.857 11.7699 135.477 11.6149C135.096 11.4458 134.695 11.3613 134.272 11.3613H128.374V9.67017H134.272C134.934 9.67017 135.554 9.797 136.132 10.0507C136.71 10.3043 137.217 10.6496 137.654 11.0865C138.091 11.5092 138.429 12.0166 138.669 12.6084C138.923 13.1862 139.049 13.8063 139.049 14.4686C139.049 15.0605 138.944 15.6242 138.732 16.1597C138.535 16.6952 138.253 17.1744 137.887 17.5972C137.52 18.0199 137.084 18.3722 136.576 18.6541C136.083 18.9219 135.547 19.098 134.97 19.1826L140.064 24.4672Z" fill="url(#paint3_linear_184_616)"/>
<path d="M117.547 17.0686C118.04 17.435 118.435 17.9071 118.731 18.4849C119.027 19.0486 119.175 19.6687 119.175 20.3451C119.175 20.9088 119.062 21.4443 118.836 21.9516C118.625 22.4449 118.329 22.8817 117.949 23.2622C117.582 23.6286 117.145 23.9246 116.638 24.15C116.145 24.3614 115.609 24.4671 115.031 24.4671H107.992V22.776H115.031C115.37 22.776 115.687 22.7126 115.983 22.5858C116.279 22.459 116.539 22.2828 116.765 22.0573C116.99 21.8318 117.167 21.5782 117.293 21.2963C117.42 21.0004 117.484 20.6833 117.484 20.3451C117.484 20.0069 117.42 19.6898 117.293 19.3938C117.167 19.0979 116.99 18.8442 116.765 18.6329C116.539 18.4074 116.279 18.2312 115.983 18.1044C115.687 17.9776 115.37 17.9141 115.031 17.9141V16.2019C115.37 16.2019 115.687 16.1385 115.983 16.0117C116.279 15.8848 116.539 15.7157 116.765 15.5043C116.99 15.2789 117.167 15.0252 117.293 14.7433C117.42 14.4474 117.484 14.1303 117.484 13.7921C117.484 13.4539 117.42 13.1368 117.293 12.8409C117.167 12.5449 116.99 12.2842 116.765 12.0587C116.539 11.8333 116.279 11.6571 115.983 11.5303C115.687 11.4034 115.37 11.34 115.031 11.34H109.535V14.4263H107.844V9.64893H115.031C115.609 9.64893 116.145 9.76167 116.638 9.98714C117.145 10.1985 117.582 10.4945 117.949 10.875C118.329 11.2414 118.625 11.6782 118.836 12.1856C119.062 12.6788 119.175 13.2143 119.175 13.7921C119.175 14.4685 119.027 15.0886 118.731 15.6523C118.435 16.216 118.04 16.6881 117.547 17.0686Z" fill="url(#paint4_linear_184_616)"/>
<path d="M96.1105 13.8767L90.4876 19.8378L83.2582 12.0588V9.60669L90.5087 17.3434L97.8016 9.60669V24.4672H96.1105V13.8767Z" fill="url(#paint5_linear_184_616)"/>
<path d="M62.8008 11.319V9.62793H73.2221V11.319H62.8008ZM62.8008 17.9143V16.2021H73.2221V17.9143H62.8008ZM62.8008 24.4673V22.7762H73.2221V24.4673H62.8008Z" fill="url(#paint6_linear_184_616)"/>
<path d="M51.067 13.8767L45.4441 19.8378L39.9058 13.8767V24.4672H38.2147V9.60669L45.4653 17.3434L52.7581 9.60669V24.4672H51.067V13.8767Z" fill="url(#paint7_linear_184_616)"/>
<path fill-rule="evenodd" clip-rule="evenodd" d="M13.8723 0.950195L27.7445 8.94986V24.9505L13.8723 32.9502L0 24.9505V8.94986L13.8723 0.950195ZM1.32117 9.71308V24.1873L13.8723 31.4251L26.4233 24.1873V9.71308L13.8723 2.4753L1.32117 9.71308Z" fill="url(#paint8_linear_184_616)"/>
<mask id="mask0_184_616" style="mask-type:alpha" maskUnits="userSpaceOnUse" x="0" y="1" width="28" height="32">
<path d="M13.8721 1.677L27.0835 9.30462V24.5599L13.8721 32.1875L0.660645 24.5599V9.30462L13.8721 1.677Z" fill="white"/>
</mask>
<g mask="url(#mask0_184_616)">
<path fill-rule="evenodd" clip-rule="evenodd" d="M8.19213 2.23944C9.60879 3.39154 10.1379 3.92915 11.5546 5.65992L10.7842 7.71436C10.5217 7.93797 10.1568 8.24334 9.81518 8.51833C9.62199 8.67383 9.43912 8.81727 9.28772 8.92997C9.26844 8.94432 9.25011 8.95784 9.23273 8.97054L7.44381 7.68377L5.86071 4.14699L8.19213 2.23944ZM5.04582 3.53345L8.01343 1.10538H8.14088C8.16561 1.09878 8.20057 1.08882 8.24667 1.07511C8.35083 1.04415 8.49489 0.999159 8.67015 0.943722C8.76761 0.912895 8.87422 0.878995 8.98774 0.842899C9.27901 0.750281 9.61575 0.643204 9.96005 0.536476C10.4386 0.388145 10.9397 0.237962 11.3668 0.12447C11.5801 0.0677812 11.78 0.018911 11.9521 -0.0161256C12.1149 -0.049275 12.2846 -0.0768914 12.4236 -0.0769043C12.6215 -0.0769227 12.8116 -0.00429727 12.9562 0.0644005C13.1127 0.138738 13.277 0.238708 13.4384 0.348211C13.7619 0.567738 14.1146 0.853732 14.4351 1.13049C14.7575 1.40898 15.0568 1.6864 15.2748 1.89354C15.3008 1.91818 15.3256 1.94184 15.3491 1.96442L16.6595 1.13352L19.1098 0.635124L22.235 1.42681L24.403 4.01176L24.7229 5.64315L26.9357 7.6685L26.9597 7.69852C27.8613 8.82544 28.8855 11.0067 29.279 11.9333L29.3629 12.1308L28.101 14.9888L30.1655 17.5694L29.9287 22.7787V24.7944L27.7659 26.5679L24.8633 27.4725L24.8527 27.484C24.7878 27.5542 24.6932 27.6564 24.5751 27.7842C24.3388 28.0398 24.0082 28.398 23.6305 28.8083C22.8749 29.6293 21.9324 30.6575 21.182 31.4896L21.0808 31.6018L20.9342 31.6385C20.8441 31.661 20.7476 31.6639 20.683 31.6644C20.6067 31.6649 20.5191 31.6615 20.4256 31.6557C20.238 31.6439 20.003 31.6209 19.7422 31.5911C19.2193 31.5312 18.5695 31.4409 17.9385 31.3476C17.3066 31.2543 16.6895 31.1574 16.2306 31.084C16.1009 31.0632 15.9837 31.0443 15.8824 31.0278C15.8704 31.0615 15.8578 31.0963 15.845 31.1317C15.7541 31.3816 15.6251 31.7216 15.5235 31.8995C15.4673 31.9978 15.3809 32.0724 15.3484 32.1006L15.3463 32.1023C15.2956 32.1462 15.2342 32.194 15.168 32.2431C15.0344 32.3421 14.8577 32.4634 14.6549 32.5971C14.2481 32.8652 13.7178 33.1949 13.176 33.5151C12.6348 33.835 12.0755 34.1494 11.6116 34.3853C11.3805 34.5029 11.1658 34.6047 10.9852 34.6783C10.8951 34.715 10.8067 34.7476 10.7247 34.7717C10.6511 34.7932 10.548 34.8188 10.4405 34.8188C10.2684 34.8188 10.0695 34.7527 9.91824 34.6963C9.74257 34.6308 9.53527 34.54 9.31269 34.4338C8.86631 34.2207 8.33231 33.9334 7.81891 33.6293C7.30711 33.3261 6.80302 32.9987 6.42136 32.7045C6.23215 32.5586 6.05898 32.4102 5.92829 32.2684C5.86316 32.1977 5.79767 32.1171 5.74591 32.0291C5.6982 31.948 5.63539 31.8161 5.63539 31.6537V30.8929C5.57365 30.8272 5.49252 30.7417 5.3954 30.6399C5.19061 30.4254 4.91743 30.1413 4.61104 29.8238C3.84161 29.0264 2.86581 28.0211 2.24646 27.3843L2.13603 27.2708L1.97062 26.1957C1.89242 26.1313 1.78663 26.044 1.6619 25.9403C1.38885 25.7134 1.0241 25.4074 0.658772 25.0926C0.294714 24.7788 -0.0751638 24.4517 -0.35612 24.1837C-0.495462 24.0508 -0.621022 23.9248 -0.714675 23.8182C-0.760617 23.7659 -0.808253 23.7077 -0.847263 23.649C-0.866699 23.6197 -0.890642 23.5804 -0.911236 23.5342C-0.928584 23.4953 -0.962476 23.4107 -0.962476 23.3014V22.6887C-0.983338 22.663 -1.00535 22.6353 -1.02823 22.6061C-1.11563 22.4944 -1.22487 22.3487 -1.34708 22.1816C-1.59199 21.8467 -1.89644 21.4159 -2.19654 20.979C-2.49641 20.5424 -2.79454 20.0958 -3.02606 19.7298C-3.14154 19.5473 -3.24304 19.3807 -3.32061 19.2435C-3.38689 19.1262 -3.46726 18.9771 -3.50049 18.8544C-3.52706 18.7563 -3.54423 18.6152 -3.55738 18.482C-3.57185 18.3353 -3.58525 18.1539 -3.5971 17.9517C-3.62083 17.5469 -3.63903 17.0462 -3.64637 16.5487C-3.65369 16.0525 -3.65031 15.5519 -3.62991 15.1493C-3.61975 14.9491 -3.60496 14.7639 -3.58336 14.612C-3.5726 14.5364 -3.55897 14.4603 -3.54073 14.3904C-3.52532 14.3314 -3.49573 14.232 -3.43414 14.1398C-3.35823 14.0263 -3.22679 13.914 -3.1323 13.8361C-3.01746 13.7414 -2.87238 13.6309 -2.7118 13.5132C-2.38968 13.2772 -1.98566 12.9978 -1.59307 12.7321C-1.1996 12.4657 -0.813813 12.2105 -0.526656 12.022C-0.431164 11.9593 -0.346499 11.904 -0.27599 11.858V10.9065C-0.27599 10.7733 -0.228145 10.669 -0.202228 10.6187C-0.171573 10.5591 -0.134718 10.5061 -0.101899 10.4632C-0.0358431 10.3769 0.0480917 10.2875 0.13333 10.2032C0.306087 10.0324 0.528918 9.83924 0.742169 9.66234C0.95742 9.48378 1.17167 9.31459 1.33147 9.19051C1.36401 9.16523 1.39437 9.14178 1.42209 9.12044L1.68108 6.0125L1.74854 5.90824L2.1645 6.17739C1.74854 5.90824 1.74845 5.90838 1.74854 5.90824L1.74942 5.90689L1.75076 5.90483L1.75485 5.89861C1.7582 5.89355 1.76278 5.88667 1.76858 5.87808C1.78018 5.86092 1.79666 5.83692 1.81786 5.80699C1.86023 5.74718 1.92161 5.66345 2.0007 5.56315C2.15842 5.36311 2.38893 5.09412 2.68187 4.8166C3.23154 4.29585 4.04555 3.70285 5.04582 3.53345ZM2.64721 6.35069L2.44968 8.721L6.35618 7.67926L4.96254 4.56574C4.34329 4.73591 3.79391 5.12802 3.36334 5.53593C3.11281 5.77327 2.91427 6.00484 2.7788 6.17665C2.72396 6.24621 2.67985 6.30547 2.64721 6.35069ZM6.94721 8.54715L2.11917 9.83464C2.07472 9.86851 2.01285 9.91593 1.93919 9.97313C1.78435 10.0934 1.57908 10.2555 1.37481 10.425C1.16854 10.5961 0.971848 10.7676 0.829964 10.9079C0.780032 10.9572 0.742055 10.9977 0.714884 11.029V11.8618L5.24498 14.8818C5.29923 14.8474 5.35835 14.811 5.421 14.7731C5.64373 14.6383 5.92622 14.4762 6.22622 14.3081C6.75908 14.0096 7.35778 13.6863 7.79838 13.452L8.68656 11.2481C8.66071 11.1536 8.64754 11.0622 8.63949 10.9872C8.62134 10.8182 8.62058 10.632 8.62776 10.4546C8.63688 10.2294 8.65974 9.99767 8.68561 9.79759L6.94721 8.54715ZM9.67535 9.87163C9.64987 10.0584 9.62641 10.2829 9.61783 10.4947C9.61231 10.6308 9.61341 10.7515 9.62155 10.8484L13.7207 12.0061V9.69967L11.2844 8.58945C11.0352 8.80001 10.7283 9.05531 10.4365 9.29023C10.2387 9.44938 10.045 9.60152 9.87938 9.72481C9.8116 9.77526 9.74219 9.82574 9.67535 9.87163ZM11.8295 7.74896L14.2677 8.86005L17.5723 8.08602L14.8151 4.63953L12.5183 5.91207L11.8295 7.74896ZM12.2403 4.93334L14.5107 3.6754L14.7359 2.74937C14.6936 2.70854 14.6455 2.66236 14.5923 2.61191C14.3813 2.41145 14.0942 2.14539 13.7874 1.8804C13.4786 1.61368 13.1592 1.3562 12.882 1.16814C12.743 1.07384 12.6249 1.00398 12.5311 0.959446C12.4547 0.923172 12.4189 0.91558 12.4149 0.914156C12.3769 0.915606 12.2922 0.92583 12.1497 0.954831C12.0042 0.984459 11.8251 1.02796 11.6213 1.08211C11.2141 1.1903 10.7284 1.33569 10.2534 1.48292C9.91281 1.58851 9.58184 1.69375 9.29157 1.78605C9.26946 1.79308 9.2476 1.80004 9.22598 1.80691C10.3895 2.77674 10.983 3.40153 12.2403 4.93334ZM15.7181 2.90375L15.4797 3.88409L18.7684 7.99494L19.6683 8.44492L21.6434 6.69551C20.4386 5.72832 19.2292 4.62135 18.2885 3.72301C17.7558 3.21431 17.307 2.77039 16.9913 2.45342C16.9097 2.37155 16.837 2.29812 16.774 2.2342L15.7181 2.90375ZM17.843 1.90395C18.14 2.20014 18.5265 2.58022 18.9728 3.0064C19.9681 3.95692 21.2529 5.12917 22.5005 6.11102L23.7144 5.64972L23.4797 4.45292L21.6814 2.30875L19.0857 1.65119L17.843 1.90395ZM24.2134 6.52011L22.6765 7.10413L20.2377 9.26423L20.1012 12.8811L23.5225 14.4333C24.3328 13.0909 24.9566 11.5402 25.3886 10.2745C25.6232 9.58714 25.7992 8.99014 25.9164 8.56567C25.9591 8.41085 25.994 8.27913 26.021 8.17452L24.2134 6.52011ZM26.7737 9.17534C27.3658 10.1438 27.9551 11.3772 28.2824 12.1247L27.1612 14.664L24.7428 15.4806L24.3295 15.0134C25.2136 13.5664 25.8775 11.9095 26.3263 10.5946C26.5104 10.0555 26.6595 9.5702 26.7737 9.17534ZM23.4115 15.4711L19.6483 13.7637L17.1069 15.5695L16.3917 17.5063C16.4189 17.5211 16.4474 17.5366 16.4773 17.5528C16.7681 17.7106 17.1856 17.9323 17.6906 18.1872C18.6818 18.6874 20.0035 19.3119 21.3627 19.8312H22.731L24.0942 18.6848V16.2429L23.4115 15.4711ZM25.0851 16.4108V18.6765L28.9824 21.7759L29.1587 17.8971L27.3562 15.644L25.0851 16.4108ZM28.9378 23.0064L24.5984 19.5555L23.4128 20.5525C23.4139 20.624 23.4149 20.7101 23.4153 20.8093C23.4164 21.1241 23.4115 21.5721 23.3872 22.1082C23.3429 23.084 23.2342 24.3613 22.9779 25.663L24.6347 26.5059L27.2868 25.6793L28.9378 24.3255V23.0064ZM23.7811 27.1834L22.3718 26.4664L21.4769 26.749C21.5313 28.2524 21.4743 28.9368 21.4061 29.7567C21.4057 29.761 21.4053 29.7653 21.405 29.7696C21.9168 29.2085 22.4438 28.6345 22.9014 28.1373C23.2455 27.7635 23.5507 27.4328 23.7811 27.1834ZM20.3447 30.6562C20.3691 30.2542 20.3962 29.9306 20.4213 29.632C20.4873 28.8448 20.5388 28.2304 20.4876 26.8071L18.5522 26.4552C18.5062 26.4846 18.4515 26.5197 18.3893 26.5598C18.1859 26.6908 17.9025 26.8745 17.5824 27.0855C17.0255 27.4526 16.3639 27.898 15.8204 28.2901C15.8791 28.695 15.9296 29.1618 15.9675 29.551C15.9855 29.7359 16.0008 29.9053 16.013 30.0451C16.1199 30.0625 16.2461 30.0829 16.3873 30.1055C16.8438 30.1786 17.4567 30.2748 18.0833 30.3674C18.7109 30.4601 19.3482 30.5486 19.855 30.6066C20.0407 30.6279 20.2058 30.6447 20.3447 30.6562ZM15.0491 30.4089C15.0474 30.3879 15.0455 30.364 15.0433 30.3373C15.0413 30.3139 15.0392 30.2883 15.0369 30.2608C15.0239 30.1057 15.0049 29.8898 14.9813 29.647C14.9413 29.2363 14.889 28.7588 14.8304 28.3683C14.0399 27.8672 13.1063 27.2472 12.3518 26.7397C11.9432 26.4649 11.5861 26.2223 11.3311 26.0485C11.3155 26.0379 11.3004 26.0276 11.2856 26.0175C10.4853 26.9257 9.40897 28.1291 8.47703 29.1324C7.95292 29.6966 7.46949 30.203 7.10494 30.5588C6.92461 30.7347 6.76301 30.8841 6.63556 30.9861C6.6325 30.9886 6.6294 30.9911 6.62626 30.9936V31.5619C6.63426 31.5716 6.64433 31.5832 6.65686 31.5968C6.73284 31.6792 6.8562 31.7885 7.02638 31.9198C7.36351 32.1797 7.82972 32.484 8.32391 32.7767C8.81651 33.0685 9.32422 33.3413 9.73945 33.5395C9.94768 33.6389 10.1262 33.7164 10.2643 33.7678C10.359 33.8031 10.413 33.8177 10.4359 33.8237C10.4389 33.8228 10.4421 33.8219 10.4457 33.8209C10.4841 33.8096 10.5388 33.7903 10.6111 33.7608C10.7554 33.702 10.9426 33.614 11.1624 33.5021C11.6007 33.2792 12.1403 32.9763 12.6718 32.6621C13.2028 32.3482 13.719 32.0272 14.1096 31.7697C14.3056 31.6406 14.4654 31.5304 14.5781 31.4469C14.6267 31.4109 14.6624 31.3829 14.6866 31.3626C14.7413 31.2498 14.8276 31.0301 14.9137 30.7931C14.9602 30.6654 15.0021 30.5455 15.0325 30.4573C15.0385 30.4398 15.0441 30.4236 15.0491 30.4089ZM14.7171 31.3354C14.7173 31.3352 14.7156 31.3371 14.7115 31.3409C14.7148 31.3374 14.7169 31.3355 14.7171 31.3354ZM6.59999 31.5267C6.59826 31.5238 6.59881 31.5242 6.60065 31.5278C6.60039 31.5274 6.60017 31.527 6.59999 31.5267ZM10.6509 25.2389L10.1182 23.4275L2.98126 26.2484L3.06721 26.807C3.68827 27.4458 4.5977 28.3829 5.32409 29.1357C5.66951 29.4937 5.98255 29.8192 6.20212 30.0502C6.2637 29.9934 6.33407 29.9265 6.4129 29.8496C6.75947 29.5114 7.22951 29.0195 7.75102 28.458C8.718 27.417 9.84484 26.1553 10.6509 25.2389ZM2.52063 25.365L9.37674 22.6551C9.3676 22.649 9.3584 22.6429 9.34914 22.6367C8.85635 22.308 8.19505 21.8652 7.52157 21.409C6.84856 20.9532 6.16141 20.4827 5.61767 20.0992C5.34612 19.9077 5.10757 19.7359 4.92342 19.5976C4.8849 19.5686 4.84649 19.5395 4.80912 19.5106C4.69565 19.5789 4.55583 19.6675 4.39261 19.7741C4.03724 20.0061 3.58518 20.314 3.07946 20.6625C2.78107 20.8681 2.46421 21.0877 2.13882 21.3132C1.44194 21.7961 0.705909 22.3062 0.028398 22.7641V23.1626C0.0288246 23.1631 0.0292542 23.1636 0.0296869 23.1641C0.0945456 23.2379 0.195431 23.3404 0.327823 23.4667C0.590337 23.7171 0.945085 24.0312 1.30565 24.342C1.66495 24.6516 2.02483 24.9535 2.29525 25.1783C2.38024 25.2489 2.45631 25.3119 2.52063 25.365ZM-0.36936 21.8368C0.257463 21.4114 0.926272 20.9479 1.56712 20.5038C1.89421 20.2771 2.21401 20.0555 2.51723 19.8465C3.02363 19.4976 3.48441 19.1837 3.85091 18.9444C4.03398 18.8249 4.1971 18.7216 4.33263 18.641C4.35813 18.6259 4.38376 18.6108 4.4093 18.5961L4.72798 15.7281L0.216051 12.7201C0.157212 12.7585 0.0903671 12.8023 0.0170612 12.8504C-0.267744 13.0373 -0.64935 13.2898 -1.03763 13.5526C-1.42678 13.816 -1.81885 14.0873 -2.12607 14.3125C-2.28017 14.4254 -2.40807 14.5232 -2.50189 14.6006C-2.54366 14.635 -2.57187 14.66 -2.58995 14.6765C-2.59374 14.6959 -2.59796 14.7206 -2.60235 14.7515C-2.6179 14.8609 -2.63082 15.0124 -2.6403 15.1995C-2.65917 15.5717 -2.66276 16.0484 -2.6556 16.5341C-2.64845 17.0188 -2.63071 17.5049 -2.60792 17.8938C-2.59651 18.0885 -2.58401 18.2557 -2.57129 18.3847C-2.56492 18.4492 -2.55877 18.5013 -2.55311 18.5408C-2.54915 18.5685 -2.54619 18.5844 -2.54481 18.5915C-2.54434 18.5919 -2.54276 18.5952 -2.53966 18.6016C-2.53025 18.621 -2.50682 18.6695 -2.45795 18.756C-2.3919 18.8728 -2.30016 19.0239 -2.18869 19.2001C-1.96632 19.5516 -1.67579 19.9869 -1.37975 20.418C-1.08394 20.8487 -0.785236 21.2712 -0.547272 21.5966C-0.482552 21.6851 -0.422871 21.7657 -0.36936 21.8368ZM-2.57836 14.6285C-2.57833 14.6286 -2.57881 14.6302 -2.5799 14.6331C-2.57894 14.6299 -2.57839 14.6284 -2.57836 14.6285ZM5.72218 15.753L5.39363 18.7099C5.43027 18.7384 5.47199 18.7703 5.51869 18.8054C5.69119 18.935 5.92044 19.1003 6.18878 19.2895C6.72482 19.6676 7.40588 20.1339 8.07723 20.5886C8.74813 21.043 9.40736 21.4845 9.899 21.8124C10.0857 21.9369 10.2481 22.045 10.3778 22.1313C10.5472 21.9565 10.7891 21.698 11.0863 21.3557C11.6425 20.7151 12.3924 19.7815 13.2248 18.5549C11.7841 17.5689 10.4937 16.5231 9.53986 15.7011C9.01727 15.2507 8.59433 14.8662 8.30148 14.5939C8.22806 14.5256 8.1628 14.4643 8.10617 14.4108C7.69131 14.6324 7.17464 14.9126 6.71052 15.1726C6.4143 15.3385 6.14284 15.4944 5.93398 15.6208C5.85059 15.6713 5.77956 15.7156 5.72218 15.753ZM8.77501 13.6795C8.83242 13.7338 8.89971 13.7971 8.97631 13.8683C9.26137 14.1334 9.67494 14.5094 10.1867 14.9505C11.171 15.7987 12.5134 16.8834 14.0001 17.8835C14.2406 17.8274 14.5046 17.7859 14.7165 17.7572C14.8544 17.7385 14.9778 17.7242 15.0698 17.7143L15.3563 17.45L16.1232 15.3729L13.9514 13.1009L9.51335 11.8474L8.77501 13.6795ZM14.7115 12.4622L16.7573 14.6023L19.1077 12.9323L19.2433 9.34025L18.3881 8.91263L14.7115 9.77379V12.4622ZM16.1 18.4753C16.2024 18.6317 16.3229 18.8236 16.4624 19.0574C16.9279 19.8377 17.607 21.0893 18.5266 23.051C19.2603 21.9663 19.6302 21.5358 20.0206 21.0814C20.1621 20.9167 20.3063 20.7488 20.4714 20.5455C19.2642 20.0585 18.1225 19.515 17.2442 19.0718C16.7816 18.8383 16.3907 18.632 16.1 18.4753ZM21.5169 20.822C21.1819 21.2565 20.9495 21.5253 20.7327 21.7761C20.3024 22.2739 19.9334 22.7007 18.9449 24.2116V25.5195L20.9344 25.8812L21.9905 25.5477C22.2448 24.2853 22.3535 23.0295 22.3973 22.0633C22.4205 21.551 22.4254 21.1229 22.4244 20.822H21.5169ZM17.954 25.6616V24.1722C16.8764 21.8204 16.1077 20.3969 15.6114 19.565C15.36 19.1436 15.1795 18.8756 15.0652 18.7168C15.0641 18.7153 15.0631 18.7138 15.062 18.7123C14.9983 18.7197 14.9263 18.7287 14.8497 18.739C14.638 18.7678 14.4088 18.8053 14.2207 18.8495C13.2946 20.2406 12.4534 21.2925 11.8345 22.0054C11.5134 22.3751 11.252 22.6538 11.0695 22.8413C11.0447 22.8667 11.0214 22.8905 10.9996 22.9126L11.6288 25.0519C11.6955 25.0976 11.7835 25.1577 11.8892 25.2297C12.1429 25.4027 12.4983 25.6441 12.9048 25.9175C13.6269 26.4031 14.5067 26.9876 15.2639 27.4698C15.8215 27.0684 16.4863 26.6213 17.0371 26.2582C17.3607 26.0449 17.6472 25.8592 17.8527 25.7268C17.8891 25.7033 17.923 25.6816 17.954 25.6616Z" fill="url(#paint9_linear_184_616)"/>
</g>
<defs>
<linearGradient id="paint0_linear_184_616" x1="121.547" y1="4.98007" x2="121.547" y2="28.7611" gradientUnits="userSpaceOnUse">
<stop stop-color="#00A3F9"/>
<stop offset="1" stop-color="#00F1EF"/>
</linearGradient>
<linearGradient id="paint1_linear_184_616" x1="121.547" y1="4.98005" x2="121.547" y2="28.761" gradientUnits="userSpaceOnUse">
<stop stop-color="#00A3F9"/>
<stop offset="1" stop-color="#00F1EF"/>
</linearGradient>
<linearGradient id="paint2_linear_184_616" x1="121.547" y1="4.98005" x2="121.547" y2="28.761" gradientUnits="userSpaceOnUse">
<stop stop-color="#00A3F9"/>
<stop offset="1" stop-color="#00F1EF"/>
</linearGradient>
<linearGradient id="paint3_linear_184_616" x1="121.547" y1="4.98003" x2="121.547" y2="28.761" gradientUnits="userSpaceOnUse">
<stop stop-color="#00A3F9"/>
<stop offset="1" stop-color="#00F1EF"/>
</linearGradient>
<linearGradient id="paint4_linear_184_616" x1="121.547" y1="4.97992" x2="121.547" y2="28.7609" gradientUnits="userSpaceOnUse">
<stop stop-color="#00A3F9"/>
<stop offset="1" stop-color="#00F1EF"/>
</linearGradient>
<linearGradient id="paint5_linear_184_616" x1="121.547" y1="4.97997" x2="121.547" y2="28.761" gradientUnits="userSpaceOnUse">
<stop stop-color="#00A3F9"/>
<stop offset="1" stop-color="#00F1EF"/>
</linearGradient>
<linearGradient id="paint6_linear_184_616" x1="121.547" y1="4.98007" x2="121.547" y2="28.7611" gradientUnits="userSpaceOnUse">
<stop stop-color="#00A3F9"/>
<stop offset="1" stop-color="#00F1EF"/>
</linearGradient>
<linearGradient id="paint7_linear_184_616" x1="121.547" y1="4.97997" x2="121.547" y2="28.761" gradientUnits="userSpaceOnUse">
<stop stop-color="#00A3F9"/>
<stop offset="1" stop-color="#00F1EF"/>
</linearGradient>
<linearGradient id="paint8_linear_184_616" x1="13.8722" y1="0.950195" x2="13.8722" y2="32.9502" gradientUnits="userSpaceOnUse">
<stop stop-color="#00A3F9"/>
<stop offset="1" stop-color="#00F1EF"/>
</linearGradient>
<linearGradient id="paint9_linear_184_616" x1="13.2578" y1="-0.0769043" x2="13.2578" y2="34.8188" gradientUnits="userSpaceOnUse">
<stop stop-color="#00A3F9"/>
<stop offset="1" stop-color="#00F1EF"/>
</linearGradient>
</defs>
</svg>
