<svg width="205" height="33" viewBox="0 0 205 33" fill="none" xmlns="http://www.w3.org/2000/svg">
<path d="M194.463 10.6003V8.90918H204.885V10.6003H194.463ZM194.463 17.1955V15.4833H204.885V17.1955H194.463ZM194.463 23.7485V22.0574H204.885V23.7485H194.463Z" fill="url(#paint0_linear_184_2092)"/>
<path d="M184.417 23.7485L172.664 11.2344V8.80347L182.726 19.4996V8.9303H184.417V23.7485Z" fill="url(#paint1_linear_184_2092)"/>
<path d="M156.135 8.80347L163.048 23.7485H161.166L156.135 12.841L151.126 23.7485H149.265L156.135 8.80347Z" fill="url(#paint2_linear_184_2092)"/>
<path d="M140.064 23.7485H137.739L131.101 16.815H134.272C134.695 16.815 135.096 16.7375 135.477 16.5825C135.857 16.4134 136.182 16.1949 136.449 15.9272C136.731 15.6453 136.95 15.3212 137.105 14.9548C137.274 14.5743 137.358 14.1727 137.358 13.7499C137.358 13.313 137.274 12.9114 137.105 12.545C136.95 12.1645 136.731 11.8333 136.449 11.5515C136.182 11.2696 135.857 11.0512 135.477 10.8962C135.096 10.7271 134.695 10.6425 134.272 10.6425H128.374V8.95142H134.272C134.934 8.95142 135.554 9.07825 136.132 9.33191C136.71 9.58558 137.217 9.93084 137.654 10.3677C138.091 10.7905 138.429 11.2978 138.669 11.8897C138.923 12.4675 139.049 13.0875 139.049 13.7499C139.049 14.3418 138.944 14.9055 138.732 15.441C138.535 15.9765 138.253 16.4556 137.887 16.8784C137.52 17.3012 137.084 17.6535 136.576 17.9353C136.083 18.2031 135.547 18.3793 134.97 18.4638L140.064 23.7485Z" fill="url(#paint3_linear_184_2092)"/>
<path d="M117.547 16.3498C118.04 16.7162 118.435 17.1883 118.731 17.7661C119.027 18.3298 119.175 18.9499 119.175 19.6263C119.175 20.19 119.062 20.7255 118.836 21.2329C118.625 21.7261 118.329 22.163 117.949 22.5435C117.582 22.9099 117.145 23.2058 116.638 23.4313C116.145 23.6427 115.609 23.7484 115.031 23.7484H107.992V22.0573H115.031C115.37 22.0573 115.687 21.9939 115.983 21.867C116.279 21.7402 116.539 21.564 116.765 21.3386C116.99 21.1131 117.167 20.8594 117.293 20.5776C117.42 20.2816 117.484 19.9646 117.484 19.6263C117.484 19.2881 117.42 18.971 117.293 18.6751C117.167 18.3792 116.99 18.1255 116.765 17.9141C116.539 17.6886 116.279 17.5125 115.983 17.3856C115.687 17.2588 115.37 17.1954 115.031 17.1954V15.4832C115.37 15.4832 115.687 15.4197 115.983 15.2929C116.279 15.1661 116.539 14.997 116.765 14.7856C116.99 14.5601 117.167 14.3064 117.293 14.0246C117.42 13.7287 117.484 13.4116 117.484 13.0734C117.484 12.7351 117.42 12.4181 117.293 12.1221C117.167 11.8262 116.99 11.5655 116.765 11.34C116.539 11.1145 116.279 10.9383 115.983 10.8115C115.687 10.6847 115.37 10.6213 115.031 10.6213H109.535V13.7075H107.844V8.93018H115.031C115.609 8.93018 116.145 9.04292 116.638 9.26839C117.145 9.47978 117.582 9.77572 117.949 10.1562C118.329 10.5226 118.625 10.9595 118.836 11.4668C119.062 11.9601 119.175 12.4956 119.175 13.0734C119.175 13.7498 119.027 14.3699 118.731 14.9336C118.435 15.4973 118.04 15.9694 117.547 16.3498Z" fill="url(#paint4_linear_184_2092)"/>
<path d="M96.1105 13.1579L90.4876 19.1191L83.2582 11.34V8.88794L90.5087 16.6247L97.8016 8.88794V23.7484H96.1105V13.1579Z" fill="url(#paint5_linear_184_2092)"/>
<path d="M62.8008 10.6003V8.90918H73.2221V10.6003H62.8008ZM62.8008 17.1955V15.4833H73.2221V17.1955H62.8008ZM62.8008 23.7485V22.0574H73.2221V23.7485H62.8008Z" fill="url(#paint6_linear_184_2092)"/>
<path d="M51.067 13.1579L45.4441 19.1191L39.9058 13.1579V23.7484H38.2147V8.88794L45.4653 16.6247L52.7581 8.88794V23.7484H51.067V13.1579Z" fill="url(#paint7_linear_184_2092)"/>
<path fill-rule="evenodd" clip-rule="evenodd" d="M13.8723 0.231445L27.7445 8.23111V24.2318L13.8723 32.2314L0 24.2318V8.23111L13.8723 0.231445ZM1.32117 8.99433V23.4686L13.8723 30.7063L26.4233 23.4686V8.99433L13.8723 1.75655L1.32117 8.99433Z" fill="url(#paint8_linear_184_2092)"/>
<mask id="mask0_184_2092" style="mask-type:alpha" maskUnits="userSpaceOnUse" x="0" y="0" width="28" height="32">
<path d="M13.8721 0.958252L27.0835 8.58587V23.8411L13.8721 31.4687L0.660645 23.8411V8.58587L13.8721 0.958252Z" fill="white"/>
</mask>
<g mask="url(#mask0_184_2092)">
<path fill-rule="evenodd" clip-rule="evenodd" d="M8.19213 1.52069C9.60879 2.67279 10.1379 3.2104 11.5546 4.94117L10.7842 6.99561C10.5217 7.21922 10.1568 7.52459 9.81518 7.79958C9.62199 7.95508 9.43912 8.09852 9.28772 8.21122C9.26844 8.22557 9.25011 8.23909 9.23273 8.25179L7.44381 6.96502L5.86071 3.42824L8.19213 1.52069ZM5.04582 2.8147L8.01343 0.386627H8.14088C8.16561 0.380026 8.20057 0.370068 8.24667 0.356364C8.35083 0.325404 8.49489 0.280409 8.67015 0.224972C8.76761 0.194145 8.87422 0.160245 8.98774 0.124149C9.27901 0.0315312 9.61575 -0.0755462 9.96005 -0.182274C10.4386 -0.330605 10.9397 -0.480788 11.3668 -0.59428C11.5801 -0.650969 11.78 -0.699839 11.9521 -0.734876C12.1149 -0.768025 12.2846 -0.795641 12.4236 -0.795654C12.6215 -0.795673 12.8116 -0.723047 12.9562 -0.65435C13.1127 -0.580012 13.277 -0.480042 13.4384 -0.370539C13.7619 -0.151012 14.1146 0.134982 14.4351 0.411741C14.7575 0.690231 15.0568 0.967646 15.2748 1.17479C15.3008 1.19943 15.3256 1.22309 15.3491 1.24567L16.6595 0.414765L19.1098 -0.0836263L22.235 0.708059L24.403 3.29301L24.7229 4.9244L26.9357 6.94975L26.9597 6.97977C27.8613 8.10669 28.8855 10.2879 29.279 11.2145L29.3629 11.412L28.101 14.27L30.1655 16.8507L29.9287 22.0599V24.0757L27.7659 25.8491L24.8633 26.7538L24.8527 26.7653C24.7878 26.8355 24.6932 26.9376 24.5751 27.0654C24.3388 27.3211 24.0082 27.6793 23.6305 28.0896C22.8749 28.9105 21.9324 29.9387 21.182 30.7709L21.0808 30.8831L20.9342 30.9197C20.8441 30.9422 20.7476 30.9452 20.683 30.9456C20.6067 30.9462 20.5191 30.9427 20.4256 30.9369C20.238 30.9252 20.003 30.9022 19.7422 30.8723C19.2193 30.8124 18.5695 30.7221 17.9385 30.6289C17.3066 30.5355 16.6895 30.4387 16.2306 30.3652C16.1009 30.3444 15.9837 30.3255 15.8824 30.3091C15.8704 30.3428 15.8578 30.3776 15.845 30.413C15.7541 30.6629 15.6251 31.0028 15.5235 31.1807C15.4673 31.279 15.3809 31.3537 15.3484 31.3818L15.3463 31.3836C15.2956 31.4274 15.2342 31.4753 15.168 31.5243C15.0344 31.6233 14.8577 31.7447 14.6549 31.8783C14.2481 32.1464 13.7178 32.4761 13.176 32.7963C12.6348 33.1162 12.0755 33.4306 11.6116 33.6666C11.3805 33.7842 11.1658 33.886 10.9852 33.9596C10.8951 33.9963 10.8067 34.0288 10.7247 34.0529C10.6511 34.0745 10.548 34.1 10.4405 34.1C10.2684 34.1 10.0695 34.0339 9.91824 33.9776C9.74257 33.9121 9.53527 33.8212 9.31269 33.715C8.86631 33.502 8.33231 33.2146 7.81891 32.9105C7.30711 32.6073 6.80302 32.28 6.42136 31.9857C6.23215 31.8398 6.05898 31.6914 5.92829 31.5496C5.86316 31.479 5.79767 31.3983 5.74591 31.3103C5.6982 31.2292 5.63539 31.0974 5.63539 30.9349V30.1741C5.57365 30.1084 5.49252 30.0229 5.3954 29.9212C5.19061 29.7066 4.91743 29.4225 4.61104 29.105C3.84161 28.3076 2.86581 27.3024 2.24646 26.6656L2.13603 26.552L1.97062 25.4769C1.89242 25.4126 1.78663 25.3252 1.6619 25.2216C1.38885 24.9946 1.0241 24.6887 0.658772 24.3738C0.294714 24.0601 -0.0751638 23.733 -0.35612 23.465C-0.495462 23.332 -0.621022 23.206 -0.714675 23.0994C-0.760617 23.0471 -0.808253 22.989 -0.847263 22.9302C-0.866699 22.9009 -0.890642 22.8616 -0.911236 22.8154C-0.928584 22.7765 -0.962476 22.6919 -0.962476 22.5827V21.97C-0.983338 21.9443 -1.00535 21.9166 -1.02823 21.8873C-1.11563 21.7757 -1.22487 21.6299 -1.34708 21.4628C-1.59199 21.1279 -1.89644 20.6971 -2.19654 20.2602C-2.49641 19.8236 -2.79454 19.377 -3.02606 19.0111C-3.14154 18.8286 -3.24304 18.662 -3.32061 18.5247C-3.38689 18.4074 -3.46726 18.2583 -3.50049 18.1357C-3.52706 18.0376 -3.54423 17.8965 -3.55738 17.7632C-3.57185 17.6165 -3.58525 17.4352 -3.5971 17.233C-3.62083 16.8281 -3.63903 16.3274 -3.64637 15.83C-3.65369 15.3337 -3.65031 14.8331 -3.62991 14.4306C-3.61975 14.2303 -3.60496 14.0452 -3.58336 13.8933C-3.5726 13.8176 -3.55897 13.7415 -3.54073 13.6717C-3.52532 13.6126 -3.49573 13.5132 -3.43414 13.4211C-3.35823 13.3076 -3.22679 13.1953 -3.1323 13.1174C-3.01746 13.0226 -2.87238 12.9122 -2.7118 12.7945C-2.38968 12.5584 -1.98566 12.2791 -1.59307 12.0133C-1.1996 11.747 -0.813813 11.4917 -0.526656 11.3033C-0.431164 11.2406 -0.346499 11.1852 -0.27599 11.1393V10.1878C-0.27599 10.0546 -0.228145 9.95029 -0.202228 9.89993C-0.171573 9.84036 -0.134718 9.78737 -0.101899 9.74449C-0.0358431 9.65817 0.0480917 9.56873 0.13333 9.48446C0.306087 9.31367 0.528918 9.12049 0.742169 8.94359C0.95742 8.76503 1.17167 8.59584 1.33147 8.47176C1.36401 8.44648 1.39437 8.42303 1.42209 8.40169L1.68108 5.29375L1.74854 5.18949L2.1645 5.45864C1.74854 5.18949 1.74845 5.18963 1.74854 5.18949L1.74942 5.18814L1.75076 5.18608L1.75485 5.17986C1.7582 5.1748 1.76278 5.16792 1.76858 5.15933C1.78018 5.14217 1.79666 5.11817 1.81786 5.08824C1.86023 5.02843 1.92161 4.9447 2.0007 4.8444C2.15842 4.64436 2.38893 4.37537 2.68187 4.09785C3.23154 3.5771 4.04555 2.9841 5.04582 2.8147ZM2.64721 5.63194L2.44968 8.00225L6.35618 6.96051L4.96254 3.84699C4.34329 4.01716 3.79391 4.40927 3.36334 4.81718C3.11281 5.05452 2.91427 5.28609 2.7788 5.4579C2.72396 5.52746 2.67985 5.58672 2.64721 5.63194ZM6.94721 7.8284L2.11917 9.11589C2.07472 9.14976 2.01285 9.19718 1.93919 9.25438C1.78435 9.37462 1.57908 9.53676 1.37481 9.70622C1.16854 9.87733 0.971848 10.0488 0.829964 10.1891C0.780032 10.2385 0.742055 10.2789 0.714884 10.3103V11.143L5.24498 14.1631C5.29923 14.1287 5.35835 14.0922 5.421 14.0543C5.64373 13.9195 5.92622 13.7575 6.22622 13.5894C6.75908 13.2909 7.35778 12.9675 7.79838 12.7333L8.68656 10.5294C8.66071 10.4349 8.64754 10.3435 8.63949 10.2685C8.62134 10.0994 8.62058 9.91329 8.62776 9.73582C8.63688 9.5107 8.65974 9.27892 8.68561 9.07884L6.94721 7.8284ZM9.67535 9.15288C9.64987 9.33962 9.62641 9.56411 9.61783 9.77592C9.61231 9.91209 9.61341 10.0328 9.62155 10.1296L13.7207 11.2874V8.98092L11.2844 7.8707C11.0352 8.08126 10.7283 8.33656 10.4365 8.57148C10.2387 8.73063 10.045 8.88277 9.87938 9.00606C9.8116 9.05651 9.74219 9.10699 9.67535 9.15288ZM11.8295 7.03021L14.2677 8.1413L17.5723 7.36727L14.8151 3.92078L12.5183 5.19332L11.8295 7.03021ZM12.2403 4.21459L14.5107 2.95665L14.7359 2.03062C14.6936 1.98979 14.6455 1.94361 14.5923 1.89316C14.3813 1.6927 14.0942 1.42664 13.7874 1.16165C13.4786 0.894933 13.1592 0.637455 12.882 0.449387C12.743 0.355092 12.6249 0.285234 12.5311 0.240696C12.4547 0.204422 12.4189 0.19683 12.4149 0.195406C12.3769 0.196856 12.2922 0.20708 12.1497 0.236081C12.0042 0.265709 11.8251 0.30921 11.6213 0.363363C11.2141 0.471555 10.7284 0.616938 10.2534 0.76417C9.91281 0.86976 9.58184 0.975002 9.29157 1.0673C9.26946 1.07433 9.2476 1.08129 9.22598 1.08816C10.3895 2.05799 10.983 2.68278 12.2403 4.21459ZM15.7181 2.185L15.4797 3.16534L18.7684 7.27619L19.6683 7.72617L21.6434 5.97676C20.4386 5.00957 19.2292 3.9026 18.2885 3.00426C17.7558 2.49556 17.307 2.05164 16.9913 1.73467C16.9097 1.6528 16.837 1.57937 16.774 1.51545L15.7181 2.185ZM17.843 1.1852C18.14 1.48139 18.5265 1.86147 18.9728 2.28765C19.9681 3.23817 21.2529 4.41042 22.5005 5.39227L23.7144 4.93097L23.4797 3.73417L21.6814 1.59L19.0857 0.932441L17.843 1.1852ZM24.2134 5.80136L22.6765 6.38538L20.2377 8.54548L20.1012 12.1623L23.5225 13.7146C24.3328 12.3722 24.9566 10.8214 25.3886 9.55575C25.6232 8.86839 25.7992 8.27139 25.9164 7.84692C25.9591 7.6921 25.994 7.56038 26.021 7.45577L24.2134 5.80136ZM26.7737 8.45659C27.3658 9.42507 27.9551 10.6584 28.2824 11.4059L27.1612 13.9452L24.7428 14.7618L24.3295 14.2946C25.2136 12.8476 25.8775 11.1907 26.3263 9.87586C26.5104 9.33675 26.6595 8.85145 26.7737 8.45659ZM23.4115 14.7523L19.6483 13.0449L17.1069 14.8507L16.3917 16.7875C16.4189 16.8023 16.4474 16.8179 16.4773 16.8341C16.7681 16.9918 17.1856 17.2135 17.6906 17.4684C18.6818 17.9686 20.0035 18.5931 21.3627 19.1124H22.731L24.0942 17.9661V15.5241L23.4115 14.7523ZM25.0851 15.6921V17.9578L28.9824 21.0571L29.1587 17.1784L27.3562 14.9252L25.0851 15.6921ZM28.9378 22.2877L24.5984 18.8367L23.4128 19.8337C23.4139 19.9052 23.4149 19.9913 23.4153 20.0905C23.4164 20.4054 23.4115 20.8534 23.3872 21.3894C23.3429 22.3653 23.2342 23.6426 22.9779 24.9443L24.6347 25.7872L27.2868 24.9606L28.9378 23.6068V22.2877ZM23.7811 26.4647L22.3718 25.7476L21.4769 26.0302C21.5313 27.5336 21.4743 28.218 21.4061 29.038C21.4057 29.0423 21.4053 29.0466 21.405 29.0509C21.9168 28.4898 22.4438 27.9158 22.9014 27.4185C23.2455 27.0447 23.5507 26.7141 23.7811 26.4647ZM20.3447 29.9375C20.3691 29.5354 20.3962 29.2119 20.4213 28.9132C20.4873 28.126 20.5388 27.5117 20.4876 26.0883L18.5522 25.7364C18.5062 25.7658 18.4515 25.801 18.3893 25.841C18.1859 25.972 17.9025 26.1558 17.5824 26.3668C17.0255 26.7338 16.3639 27.1792 15.8204 27.5714C15.8791 27.9762 15.9296 28.4431 15.9675 28.8323C15.9855 29.0171 16.0008 29.1865 16.013 29.3264C16.1199 29.3438 16.2461 29.3642 16.3873 29.3868C16.8438 29.4599 17.4567 29.5561 18.0833 29.6487C18.7109 29.7414 19.3482 29.8298 19.855 29.8879C20.0407 29.9092 20.2058 29.926 20.3447 29.9375ZM15.0491 29.6901C15.0474 29.6692 15.0455 29.6452 15.0433 29.6186C15.0413 29.5951 15.0392 29.5695 15.0369 29.5421C15.0239 29.387 15.0049 29.1711 14.9813 28.9282C14.9413 28.5176 14.889 28.0401 14.8304 27.6495C14.0399 27.1485 13.1063 26.5284 12.3518 26.0209C11.9432 25.7461 11.5861 25.5036 11.3311 25.3297C11.3155 25.3192 11.3004 25.3088 11.2856 25.2988C10.4853 26.2069 9.40897 27.4103 8.47703 28.4136C7.95292 28.9779 7.46949 29.4843 7.10494 29.84C6.92461 30.016 6.76301 30.1653 6.63556 30.2674C6.6325 30.2698 6.6294 30.2723 6.62626 30.2748V30.8432C6.63426 30.8529 6.64433 30.8645 6.65686 30.8781C6.73284 30.9605 6.8562 31.0698 7.02638 31.201C7.36351 31.4609 7.82972 31.7652 8.32391 32.058C8.81651 32.3498 9.32422 32.6226 9.73945 32.8207C9.94768 32.9201 10.1262 32.9976 10.2643 33.0491C10.359 33.0844 10.413 33.0989 10.4359 33.1049C10.4389 33.1041 10.4421 33.1032 10.4457 33.1021C10.4841 33.0909 10.5388 33.0715 10.6111 33.042C10.7554 32.9832 10.9426 32.8952 11.1624 32.7834C11.6007 32.5605 12.1403 32.2575 12.6718 31.9433C13.2028 31.6295 13.719 31.3084 14.1096 31.051C14.3056 30.9218 14.4654 30.8117 14.5781 30.7282C14.6267 30.6922 14.6624 30.6642 14.6866 30.6439C14.7413 30.531 14.8276 30.3114 14.9137 30.0744C14.9602 29.9467 15.0021 29.8267 15.0325 29.7385C15.0385 29.721 15.0441 29.7048 15.0491 29.6901ZM14.7171 30.6166C14.7173 30.6165 14.7156 30.6183 14.7115 30.6222C14.7148 30.6186 14.7169 30.6167 14.7171 30.6166ZM6.59999 30.808C6.59826 30.805 6.59881 30.8055 6.60065 30.809C6.60039 30.8086 6.60017 30.8083 6.59999 30.808ZM10.6509 24.5201L10.1182 22.7088L2.98126 25.5296L3.06721 26.0883C3.68827 26.7271 4.5977 27.6642 5.32409 28.417C5.66951 28.775 5.98255 29.1004 6.20212 29.3315C6.2637 29.2747 6.33407 29.2078 6.4129 29.1308C6.75947 28.7926 7.22951 28.3007 7.75102 27.7393C8.718 26.6983 9.84484 25.4366 10.6509 24.5201ZM2.52063 24.6462L9.37674 21.9364C9.3676 21.9303 9.3584 21.9242 9.34914 21.918C8.85635 21.5893 8.19505 21.1464 7.52157 20.6903C6.84856 20.2344 6.16141 19.764 5.61767 19.3805C5.34612 19.189 5.10757 19.0172 4.92342 18.8788C4.8849 18.8499 4.84649 18.8207 4.80912 18.7919C4.69565 18.8602 4.55583 18.9488 4.39261 19.0553C4.03724 19.2873 3.58518 19.5952 3.07946 19.9437C2.78107 20.1493 2.46421 20.3689 2.13882 20.5944C1.44194 21.0774 0.705909 21.5875 0.028398 22.0454V22.4439C0.0288246 22.4444 0.0292542 22.4449 0.0296869 22.4454C0.0945456 22.5192 0.195431 22.6217 0.327823 22.748C0.590337 22.9984 0.945085 23.3125 1.30565 23.6232C1.66495 23.9329 2.02483 24.2348 2.29525 24.4595C2.38024 24.5302 2.45631 24.5931 2.52063 24.6462ZM-0.36936 21.118C0.257463 20.6927 0.926272 20.2292 1.56712 19.785C1.89421 19.5584 2.21401 19.3367 2.51723 19.1278C3.02363 18.7788 3.48441 18.4649 3.85091 18.2256C4.03398 18.1061 4.1971 18.0029 4.33263 17.9223C4.35813 17.9071 4.38376 17.8921 4.4093 17.8774L4.72798 15.0093L0.216051 12.0014C0.157212 12.0398 0.0903671 12.0835 0.0170612 12.1316C-0.267744 12.3186 -0.64935 12.5711 -1.03763 12.8339C-1.42678 13.0973 -1.81885 13.3686 -2.12607 13.5937C-2.28017 13.7066 -2.40807 13.8045 -2.50189 13.8818C-2.54366 13.9163 -2.57187 13.9413 -2.58995 13.9578C-2.59374 13.9771 -2.59796 14.0019 -2.60235 14.0327C-2.6179 14.1421 -2.63082 14.2937 -2.6403 14.4808C-2.65917 14.8529 -2.66276 15.3296 -2.6556 15.8154C-2.64845 16.3 -2.63071 16.7861 -2.60792 17.175C-2.59651 17.3697 -2.58401 17.537 -2.57129 17.6659C-2.56492 17.7305 -2.55877 17.7826 -2.55311 17.8221C-2.54915 17.8498 -2.54619 17.8657 -2.54481 17.8727C-2.54434 17.8732 -2.54276 17.8764 -2.53966 17.8828C-2.53025 17.9023 -2.50682 17.9507 -2.45795 18.0372C-2.3919 18.1541 -2.30016 18.3051 -2.18869 18.4813C-1.96632 18.8328 -1.67579 19.2682 -1.37975 19.6992C-1.08394 20.1299 -0.785236 20.5525 -0.547272 20.8779C-0.482552 20.9664 -0.422871 21.0469 -0.36936 21.118ZM-2.57836 13.9098C-2.57833 13.9099 -2.57881 13.9115 -2.5799 13.9144C-2.57894 13.9111 -2.57839 13.9097 -2.57836 13.9098ZM5.72218 15.0342L5.39363 17.9912C5.43027 18.0197 5.47199 18.0516 5.51869 18.0867C5.69119 18.2163 5.92044 18.3815 6.18878 18.5708C6.72482 18.9488 7.40588 19.4151 8.07723 19.8699C8.74813 20.3242 9.40736 20.7657 9.899 21.0937C10.0857 21.2182 10.2481 21.3263 10.3778 21.4125C10.5472 21.2378 10.7891 20.9792 11.0863 20.637C11.6425 19.9964 12.3924 19.0627 13.2248 17.8362C11.7841 16.8501 10.4937 15.8043 9.53986 14.9823C9.01727 14.5319 8.59433 14.1475 8.30148 13.8751C8.22806 13.8068 8.1628 13.7456 8.10617 13.6921C7.69131 13.9137 7.17464 14.1938 6.71052 14.4538C6.4143 14.6198 6.14284 14.7757 5.93398 14.9021C5.85059 14.9525 5.77956 14.9968 5.72218 15.0342ZM8.77501 12.9608C8.83242 13.0151 8.89971 13.0783 8.97631 13.1496C9.26137 13.4147 9.67494 13.7906 10.1867 14.2317C11.171 15.08 12.5134 16.1647 14.0001 17.1648C14.2406 17.1086 14.5046 17.0672 14.7165 17.0384C14.8544 17.0197 14.9778 17.0054 15.0698 16.9956L15.3563 16.7312L16.1232 14.6542L13.9514 12.3822L9.51335 11.1287L8.77501 12.9608ZM14.7115 11.7434L16.7573 13.8836L19.1077 12.2135L19.2433 8.6215L18.3881 8.19388L14.7115 9.05504V11.7434ZM16.1 17.7565C16.2024 17.9129 16.3229 18.1048 16.4624 18.3386C16.9279 19.1189 17.607 20.3705 18.5266 22.3322C19.2603 21.2475 19.6302 20.817 20.0206 20.3626C20.1621 20.1979 20.3063 20.0301 20.4714 19.8268C19.2642 19.3398 18.1225 18.7963 17.2442 18.353C16.7816 18.1196 16.3907 17.9132 16.1 17.7565ZM21.5169 20.1033C21.1819 20.5377 20.9495 20.8065 20.7327 21.0573C20.3024 21.5552 19.9334 21.9819 18.9449 23.4928V24.8007L20.9344 25.1624L21.9905 24.8289C22.2448 23.5665 22.3535 22.3108 22.3973 21.3446C22.4205 20.8323 22.4254 20.4042 22.4244 20.1033H21.5169ZM17.954 24.9429V23.4534C16.8764 21.1016 16.1077 19.6781 15.6114 18.8463C15.36 18.4248 15.1795 18.1569 15.0652 17.998C15.0641 17.9965 15.0631 17.995 15.062 17.9935C14.9983 18.001 14.9263 18.0099 14.8497 18.0203C14.638 18.049 14.4088 18.0865 14.2207 18.1308C13.2946 19.5219 12.4534 20.5738 11.8345 21.2866C11.5134 21.6564 11.252 21.935 11.0695 22.1225C11.0447 22.148 11.0214 22.1718 10.9996 22.1938L11.6288 24.3332C11.6955 24.3788 11.7835 24.439 11.8892 24.511C12.1429 24.684 12.4983 24.9253 12.9048 25.1987C13.6269 25.6844 14.5067 26.2689 15.2639 26.7511C15.8215 26.3496 16.4863 25.9025 17.0371 25.5394C17.3607 25.3261 17.6472 25.1404 17.8527 25.008C17.8891 24.9846 17.923 24.9628 17.954 24.9429Z" fill="url(#paint9_linear_184_2092)"/>
</g>
<defs>
<linearGradient id="paint0_linear_184_2092" x1="121.547" y1="4.26132" x2="121.547" y2="28.0423" gradientUnits="userSpaceOnUse">
<stop stop-color="#00A3F9"/>
<stop offset="1" stop-color="#00F1EF"/>
</linearGradient>
<linearGradient id="paint1_linear_184_2092" x1="121.547" y1="4.2613" x2="121.547" y2="28.0423" gradientUnits="userSpaceOnUse">
<stop stop-color="#00A3F9"/>
<stop offset="1" stop-color="#00F1EF"/>
</linearGradient>
<linearGradient id="paint2_linear_184_2092" x1="121.547" y1="4.2613" x2="121.547" y2="28.0423" gradientUnits="userSpaceOnUse">
<stop stop-color="#00A3F9"/>
<stop offset="1" stop-color="#00F1EF"/>
</linearGradient>
<linearGradient id="paint3_linear_184_2092" x1="121.547" y1="4.26128" x2="121.547" y2="28.0423" gradientUnits="userSpaceOnUse">
<stop stop-color="#00A3F9"/>
<stop offset="1" stop-color="#00F1EF"/>
</linearGradient>
<linearGradient id="paint4_linear_184_2092" x1="121.547" y1="4.26117" x2="121.547" y2="28.0422" gradientUnits="userSpaceOnUse">
<stop stop-color="#00A3F9"/>
<stop offset="1" stop-color="#00F1EF"/>
</linearGradient>
<linearGradient id="paint5_linear_184_2092" x1="121.547" y1="4.26122" x2="121.547" y2="28.0422" gradientUnits="userSpaceOnUse">
<stop stop-color="#00A3F9"/>
<stop offset="1" stop-color="#00F1EF"/>
</linearGradient>
<linearGradient id="paint6_linear_184_2092" x1="121.547" y1="4.26132" x2="121.547" y2="28.0423" gradientUnits="userSpaceOnUse">
<stop stop-color="#00A3F9"/>
<stop offset="1" stop-color="#00F1EF"/>
</linearGradient>
<linearGradient id="paint7_linear_184_2092" x1="121.547" y1="4.26122" x2="121.547" y2="28.0422" gradientUnits="userSpaceOnUse">
<stop stop-color="#00A3F9"/>
<stop offset="1" stop-color="#00F1EF"/>
</linearGradient>
<linearGradient id="paint8_linear_184_2092" x1="13.8722" y1="0.231445" x2="13.8722" y2="32.2314" gradientUnits="userSpaceOnUse">
<stop stop-color="#00A3F9"/>
<stop offset="1" stop-color="#00F1EF"/>
</linearGradient>
<linearGradient id="paint9_linear_184_2092" x1="13.2578" y1="-0.795654" x2="13.2578" y2="34.1" gradientUnits="userSpaceOnUse">
<stop stop-color="#00A3F9"/>
<stop offset="1" stop-color="#00F1EF"/>
</linearGradient>
</defs>
</svg>
